<svg width="13" height="13" viewBox="0 0 13 13" fill="none" xmlns="http://www.w3.org/2000/svg">
<path d="M6.84481 12.2168C5.68109 12.2168 4.54351 11.8649 3.57591 11.2056C2.60831 10.5463 1.85416 9.60926 1.40882 8.5129C0.963487 7.41654 0.846967 6.21014 1.074 5.04626C1.30103 3.88237 1.86141 2.81327 2.68429 1.97416C3.50716 1.13504 4.55557 0.563599 5.69693 0.332088C6.83828 0.100577 8.02133 0.219397 9.09647 0.673522C10.1716 1.12765 11.0905 1.89668 11.7371 2.88338C12.3836 3.87007 12.7287 5.03011 12.7287 6.2168C12.7287 7.8081 12.1088 9.33422 11.0053 10.4594C9.9019 11.5847 8.40531 12.2168 6.84481 12.2168ZM6.84481 11.0168C7.77579 11.0168 8.68586 10.7353 9.45994 10.2079C10.234 9.68042 10.8373 8.93077 11.1936 8.05368C11.5499 7.1766 11.6431 6.21148 11.4615 5.28037C11.2798 4.34926 10.8315 3.49398 10.1732 2.82269C9.51493 2.1514 8.67621 1.69424 7.76312 1.50903C6.85003 1.32382 5.90359 1.41888 5.04348 1.78218C4.18337 2.14548 3.44823 2.76071 2.931 3.55006C2.41378 4.33942 2.13771 5.26745 2.13771 6.2168C2.13771 7.48984 2.63364 8.71074 3.51639 9.61091C4.39914 10.5111 5.59641 11.0168 6.84481 11.0168ZM6.25642 8.6168L3.76166 6.0708L4.58933 5.2228L6.25642 6.9168L9.59062 3.5258L10.4232 4.3738L6.25642 8.6168Z" fill="#C4C4C4"/>
</svg>
