<svg width="16" height="10" viewBox="0 0 16 10" fill="none" xmlns="http://www.w3.org/2000/svg">
<path d="M8.00321 9.99998C8.22515 10 8.44491 9.95491 8.64997 9.86724C8.85502 9.77957 9.04137 9.65106 9.19832 9.48904L15.5053 2.977C15.822 2.64996 16 2.20641 16 1.7439C16 1.28139 15.822 0.837834 15.5053 0.510792C15.1885 0.18375 14.759 0 14.311 0C13.8631 0 13.4335 0.18375 13.1167 0.510792L8 4.51819L2.88326 0.510792C2.56651 0.18375 2.13693 0 1.68898 0C1.24104 0 0.811401 0.18375 0.494658 0.510792C0.177914 0.837834 3.46837e-08 1.28139 0 1.7439C-3.46836e-08 2.20641 0.177914 2.64996 0.494658 2.977L6.80168 9.48904C6.95934 9.65193 7.14671 9.78097 7.35294 9.86867C7.55918 9.95637 7.78017 10.001 8.00321 9.99998Z" fill="#E0E4F5"/>
</svg>
