<svg width="15" height="15" viewBox="0 0 15 15" fill="none" xmlns="http://www.w3.org/2000/svg">
<path fill-rule="evenodd" clip-rule="evenodd" d="M9.73225 1.93743L7.39367 0.638916L5.05504 1.93743L2.4832 2.67289L1.74773 5.24474L0.449219 7.58336L1.74773 9.92196L2.4832 12.4938L5.05504 13.2293L7.39367 14.5278L9.73225 13.2293L12.3042 12.4938L13.0396 9.92196L14.3381 7.58336L13.0396 5.24474L12.3042 2.67289L9.73225 1.93743ZM10.8012 6.0458C11.1026 5.69801 11.065 5.17171 10.7172 4.87028C10.3694 4.56886 9.84308 4.60646 9.54167 4.95425L6.56033 8.39429L5.24563 6.87733C4.9442 6.52953 4.41791 6.49194 4.07011 6.79336C3.72232 7.09478 3.68472 7.62108 3.98614 7.96888L5.93059 10.2125C6.08888 10.3951 6.31865 10.5 6.56033 10.5C6.80201 10.5 7.03178 10.3951 7.19007 10.2125L10.8012 6.0458Z" fill="#0CAF60"/>
</svg>
