<svg width="26" height="30" viewBox="0 0 26 30" fill="none" xmlns="http://www.w3.org/2000/svg">
<path d="M13 15.1429C17.1031 15.1429 20.4286 11.8174 20.4286 7.71429C20.4286 3.61117 17.1031 0.285721 13 0.285721C8.89687 0.285721 5.57143 3.61117 5.57143 7.71429C5.57143 11.8174 8.89687 15.1429 13 15.1429ZM18.2 17H17.2308C15.9424 17.592 14.5089 17.9286 13 17.9286C11.4911 17.9286 10.0634 17.592 8.7692 17H7.8C3.49375 17 0 20.4938 0 24.8V27.2143C0 28.7522 1.24777 30 2.78571 30H23.2143C24.7522 30 26 28.7522 26 27.2143V24.8C26 20.4938 22.5062 17 18.2 17Z" fill="white"/>
</svg>
