<svg width="20" height="20" viewBox="0 0 20 20" fill="none" xmlns="http://www.w3.org/2000/svg">
<path d="M1.33933 14.9998C0.916599 14.2688 0.587993 13.4873 0.361328 12.6738C0.854635 12.4229 1.26892 12.0404 1.55836 11.5687C1.84779 11.097 2.00109 10.5544 2.0013 10.0009C2.00151 9.44749 1.84861 8.90477 1.55953 8.43282C1.27045 7.96088 0.856448 7.57809 0.363328 7.32682C0.815364 5.69231 1.67606 4.19977 2.86433 2.98982C3.32842 3.29155 3.86695 3.45898 4.42031 3.4736C4.97367 3.48822 5.52028 3.34945 5.99966 3.07265C6.47904 2.79586 6.87248 2.39182 7.13646 1.90526C7.40043 1.41871 7.52463 0.868599 7.49533 0.315823C9.13744 -0.108555 10.8606 -0.107867 12.5023 0.317823C12.4733 0.870588 12.5977 1.42061 12.8619 1.90703C13.1261 2.39345 13.5197 2.7973 13.9992 3.07388C14.4786 3.35047 15.0253 3.48901 15.5786 3.47417C16.1319 3.45934 16.6704 3.2917 17.1343 2.98982C17.7133 3.57982 18.2273 4.25082 18.6593 4.99982C19.0923 5.74882 19.4163 6.52982 19.6373 7.32582C19.144 7.57672 18.7297 7.9592 18.4403 8.43093C18.1509 8.90266 17.9976 9.44526 17.9974 9.99871C17.9971 10.5522 18.15 11.0949 18.4391 11.5668C18.7282 12.0388 19.1422 12.4216 19.6353 12.6728C19.1833 14.3073 18.3226 15.7999 17.1343 17.0098C16.6702 16.7081 16.1317 16.5407 15.5784 16.526C15.025 16.5114 14.4784 16.6502 13.999 16.927C13.5196 17.2038 13.1262 17.6078 12.8622 18.0944C12.5982 18.5809 12.474 19.131 12.5033 19.6838C10.8612 20.1082 9.1381 20.1075 7.49633 19.6818C7.52537 19.1291 7.40093 18.579 7.13675 18.0926C6.87257 17.6062 6.47897 17.2023 5.9995 16.9258C5.52003 16.6492 4.97338 16.5106 4.42005 16.5255C3.86673 16.5403 3.32829 16.7079 2.86433 17.0098C2.27332 16.4068 1.76092 15.7314 1.33933 14.9998ZM6.99933 15.1958C8.06496 15.8105 8.86617 16.7968 9.24933 17.9658C9.74833 18.0128 10.2493 18.0138 10.7483 17.9668C11.1317 16.7977 11.9333 15.8113 12.9993 15.1968C14.0645 14.5805 15.3199 14.3793 16.5243 14.6318C16.8143 14.2238 17.0643 13.7888 17.2723 13.3338C16.4518 12.4173 15.9984 11.23 15.9993 9.99982C15.9993 8.73982 16.4693 7.56282 17.2723 6.66582C17.0629 6.21097 16.8118 5.77646 16.5223 5.36782C15.3186 5.62013 14.0641 5.4193 12.9993 4.80382C11.9337 4.18919 11.1325 3.20281 10.7493 2.03382C10.2503 1.98682 9.74933 1.98582 9.25033 2.03282C8.86693 3.20197 8.06533 4.18838 6.99933 4.80282C5.93411 5.41914 4.67881 5.62034 3.47433 5.36782C3.18489 5.77611 2.93446 6.21069 2.72633 6.66582C3.5469 7.58238 4.00021 8.76961 3.99933 9.99982C3.99933 11.2598 3.52933 12.4368 2.72633 13.3338C2.9358 13.7887 3.18687 14.2232 3.47633 14.6318C4.68005 14.3795 5.93454 14.5803 6.99933 15.1958ZM9.99933 12.9998C9.20368 12.9998 8.44062 12.6838 7.87801 12.1211C7.3154 11.5585 6.99933 10.7955 6.99933 9.99982C6.99933 9.20417 7.3154 8.44111 7.87801 7.8785C8.44062 7.31589 9.20368 6.99982 9.99933 6.99982C10.795 6.99982 11.558 7.31589 12.1206 7.8785C12.6833 8.44111 12.9993 9.20417 12.9993 9.99982C12.9993 10.7955 12.6833 11.5585 12.1206 12.1211C11.558 12.6838 10.795 12.9998 9.99933 12.9998ZM9.99933 10.9998C10.2645 10.9998 10.5189 10.8945 10.7064 10.7069C10.894 10.5194 10.9993 10.265 10.9993 9.99982C10.9993 9.73461 10.894 9.48025 10.7064 9.29272C10.5189 9.10518 10.2645 8.99982 9.99933 8.99982C9.73411 8.99982 9.47976 9.10518 9.29222 9.29272C9.10468 9.48025 8.99933 9.73461 8.99933 9.99982C8.99933 10.265 9.10468 10.5194 9.29222 10.7069C9.47976 10.8945 9.73411 10.9998 9.99933 10.9998Z" fill="#F0F4F7"/>
</svg>
